# Blender v3.0.0 OBJ File: 'panel.blend'
# www.blender.org
mtllib panel.mtl
o panel_Sketchup
v -2.803171 0.084107 2.891913
v -2.703171 0.084107 2.791913
v -2.803171 0.084107 -2.868738
v 2.957480 0.084107 2.891913
v -2.703171 0.084107 -1.214856
v -2.703171 0.084107 -1.074298
v -2.703171 0.084107 1.119451
v -2.703171 0.084107 1.283028
v -1.194491 0.084107 2.791913
v -1.046585 0.084107 2.791913
v 1.163770 0.084107 2.791913
v 1.239736 0.084107 2.791913
v 1.358857 0.084107 2.791913
v 2.857480 0.084107 2.791913
v 2.857480 0.084107 1.220114
v 2.857480 0.084107 1.099105
v 2.857480 0.084107 -1.097404
v 2.857480 0.084107 -1.248479
v 2.857480 0.084107 -2.768738
v -2.703171 0.084107 -2.768738
v 2.957480 0.084107 -2.868738
v -2.703171 0.084107 -2.673738
v -1.222271 0.084107 -2.768738
v -1.079266 0.084107 -2.768738
v -0.995700 0.084107 -2.768738
v 1.232524 0.084107 -2.768738
v 1.382283 0.084107 -2.768738
v -2.703171 0.084107 2.548178
v 1.952422 0.084107 0.931374
v 2.671077 0.384107 2.253254
v 0.484009 0.384107 -2.061587
v 2.668741 0.384107 0.188822
v 1.986325 0.084107 -0.754465
v 2.184316 0.084107 -0.072629
v 1.950298 0.084107 0.817110
v 2.292052 0.384107 -2.285811
v 1.950298 0.084107 -0.878532
v 1.781501 0.084107 -0.938065
v 0.210612 0.084107 -0.466992
v 1.299133 0.384107 -0.180471
v 0.113376 0.084107 -0.303849
v 0.113376 0.084107 0.336151
v 1.818364 0.084107 -0.815136
v 1.818364 0.084107 0.887985
v 2.039667 0.084107 -0.077155
v -0.334258 0.384107 2.100241
v 0.113376 0.084107 -0.437833
v -1.163727 0.384107 -1.201012
v -1.643128 0.084107 -0.985825
v -1.140217 0.384107 0.217001
v -1.889096 0.084107 0.079100
v -1.685799 0.084107 0.842493
v 0.041673 0.084107 -0.348912
v -1.655324 0.084107 -0.852003
v 0.041673 0.084107 0.331088
v 1.776564 0.084107 1.006385
v 1.327591 0.384107 1.248301
v 0.041673 0.084107 0.470590
v -2.130464 0.384107 2.307524
v -1.788251 0.084107 0.898485
v -1.606599 0.084107 0.939352
v -0.055901 0.084107 0.470590
v -1.831451 0.084107 0.760726
v -2.515931 0.384107 -0.175804
v -1.770281 0.084107 -0.935923
v -1.810441 0.084107 -0.818089
v -2.044283 0.084107 0.082033
v -2.505683 0.384107 -2.215555
v 2.957480 -0.005893 -2.868738
v -2.803171 -0.005893 -2.868738
v -2.803171 -0.005893 2.891913
v 2.957480 -0.005893 2.891913
vt -2.384069 -2.344383
vt -2.284069 -2.244383
vt -2.384069 3.416268
vt 3.376582 -2.344383
vt -2.284069 1.762386
vt -2.284069 1.621827
vt -2.284069 -0.571921
vt -2.284069 -0.735498
vt -0.775389 -2.244383
vt -0.627483 -2.244383
vt 1.582873 -2.244383
vt 1.658839 -2.244383
vt 1.777959 -2.244383
vt 3.276582 -2.244383
vt 3.276582 -0.672584
vt 3.276582 -0.551575
vt 3.276582 1.644934
vt 3.276582 1.796009
vt 3.276582 3.316268
vt -2.284069 3.316268
vt 3.376582 3.416268
vt -2.284069 3.221268
vt -0.803169 3.316268
vt -0.660164 3.316268
vt -0.576598 3.316268
vt 1.651626 3.316268
vt 1.801385 3.316268
vt -2.284069 -2.000648
vt 2.371525 -0.383844
vt 3.090179 -1.705724
vt -0.672584 0.467429
vt -1.705724 0.767429
vt -2.244383 0.467429
vt 0.903111 2.609117
vt 3.087844 0.358708
vt 2.405427 1.301994
vt 2.603418 0.620159
vt 2.369401 -0.269580
vt 1.644934 0.467429
vt 0.358708 0.767429
vt -0.551575 0.467429
vt 2.711154 2.833341
vt 2.369401 1.426062
vt 2.200603 1.485595
vt 0.629714 1.014522
vt 1.718235 0.728001
vt 0.532478 0.851379
vt 0.532478 0.211379
vt 2.237466 1.362666
vt 2.237466 -0.340455
vt 2.458770 0.624685
vt 0.084844 -1.552711
vt 0.532478 0.985363
vt -0.744624 1.748542
vt -1.224026 1.533355
vt -0.721115 0.330529
vt -1.469994 0.468430
vt -1.266696 -0.294963
vt 0.460776 0.896442
vt -1.236222 1.399532
vt 0.460776 0.216442
vt 2.195667 -0.458855
vt 1.746693 -0.700771
vt 0.460776 0.076940
vt -1.711361 -1.759994
vt -1.369149 -0.350955
vt -1.187496 -0.391822
vt 0.363201 0.076940
vt -1.412349 -0.213196
vt -2.096829 0.723334
vt -1.351179 1.483453
vt -1.391339 1.365619
vt -1.625181 0.465497
vt 0.985363 0.467429
vt 0.211379 0.467429
vt 0.851379 0.467429
vt 0.723334 0.767429
vt 1.621827 0.467429
vt -0.571921 0.467429
vt -2.086581 2.763085
vt 2.763085 0.767429
vt 3.316268 0.467429
vt 3.221268 0.467429
vt 1.762386 0.467429
vt -2.384069 0.467429
vt 3.376582 0.377429
vt -2.384069 0.377429
vt 3.376582 0.467429
vt -2.344383 0.467429
vt 3.416268 0.467429
vt -2.344383 0.377429
vt 3.416268 0.377429
vt 3.376582 0.467429
vt -2.384069 0.377429
vt 3.376582 0.377429
vt -2.384069 0.467429
vt 3.416268 0.377429
vt -2.344383 0.467429
vt -2.344383 0.377429
vt 3.416268 0.467429
vt 3.376582 3.416268
vt -2.384069 -2.344383
vt -2.384069 3.416268
vt 3.376582 -2.344383
vn 0.0000 1.0000 0.0000
vn 0.0000 0.0000 1.0000
vn 0.0842 0.9609 -0.2638
vn 0.8494 0.5278 0.0000
vn 0.0000 0.9206 -0.3905
vn 0.0000 0.8736 0.4866
vn -0.2536 0.9639 -0.0809
vn -0.5834 0.7944 0.1694
vn -0.0942 0.9664 -0.2392
vn -0.4730 0.8722 -0.1244
vn 0.8464 0.5325 0.0000
vn -0.1027 0.9382 0.3305
vn 0.0000 0.8494 -0.5277
vn -0.3631 0.9254 0.1091
vn 0.0935 0.9689 0.2292
vn 0.4687 0.8834 0.0000
vn 0.0582 0.9792 0.1942
vn -0.2587 0.9564 0.1356
vn 0.2969 0.9507 -0.0890
vn -0.2453 0.9695 0.0000
vn -0.1572 0.8369 -0.5242
vn 0.5003 0.8659 0.0000
vn -0.1018 0.9438 0.3145
vn 0.0000 0.9174 0.3979
vn 0.3163 0.9348 -0.1618
vn -0.5793 0.7943 -0.1832
vn -0.1944 0.7576 0.6231
vn -0.3862 0.9167 0.1028
vn 0.0919 0.9463 -0.3098
vn -0.3561 0.9301 -0.0894
vn 0.1587 0.8291 0.5361
vn 0.2460 0.9693 0.0000
vn 0.6128 0.7685 0.1842
vn -0.3169 0.9343 0.1635
vn 0.1878 0.7714 -0.6081
vn 0.0000 0.8502 0.5265
vn 0.3551 0.9282 -0.1114
vn -0.3082 0.9467 0.0932
vn -0.0575 0.9801 -0.1902
vn 0.2533 0.9582 -0.1331
vn 0.0979 0.9663 0.2380
vn -0.4640 0.8858 0.0000
vn -0.0965 0.9685 -0.2296
vn 0.4827 0.8667 0.1254
vn 0.5981 0.7791 -0.1876
vn 0.0956 0.9380 -0.3331
vn -0.8483 0.5295 0.0000
vn 0.2584 0.9629 0.0773
vn -0.0812 0.9590 0.2715
vn -0.8353 0.5499 0.0000
vn 0.0000 0.8791 -0.4767
vn -0.8353 0.5498 0.0000
vn 0.0000 0.0000 -1.0000
vn -1.0000 0.0000 0.0000
vn 1.0000 0.0000 0.0000
vn 0.0000 -1.0000 0.0000
usemtl Material
s off
f 1/1/1 2/2/1 3/3/1
f 2/2/1 1/1/1 4/4/1
f 3/3/1 2/2/1 5/5/1
f 5/5/2 2/2/2 6/6/2
f 6/6/2 2/2/2 7/7/2
f 7/7/2 2/2/2 8/8/2
f 2/2/1 4/4/1 9/9/1
f 9/9/1 4/4/1 10/10/1
f 10/10/1 4/4/1 11/11/1
f 11/11/1 4/4/1 12/12/1
f 12/12/1 4/4/1 13/13/1
f 13/13/1 4/4/1 14/14/1
f 14/14/1 4/4/1 15/15/1
f 15/15/1 4/4/1 16/16/1
f 16/16/1 4/4/1 17/17/1
f 17/17/1 4/4/1 18/18/1
f 18/18/1 4/4/1 19/19/1
f 3/3/1 20/20/1 21/21/1
f 20/20/1 3/3/1 22/22/1
f 22/22/1 3/3/1 5/5/1
f 21/21/1 20/20/1 23/23/1
f 21/21/1 23/23/1 24/24/1
f 21/21/1 24/24/1 25/25/1
f 21/21/1 25/25/1 26/26/1
f 21/21/1 26/26/1 27/27/1
f 21/21/1 27/27/1 19/19/1
f 21/21/1 19/19/1 4/4/1
f 28/28/2 8/8/2 2/2/2
f 15/15/3 29/29/3 30/30/3
f 15/31/4 30/32/4 14/33/4
f 26/26/5 25/25/5 31/34/5
f 14/14/6 30/30/6 13/13/6
f 30/30/7 29/29/7 13/13/7
f 32/35/8 33/36/8 34/37/8
f 17/17/9 33/36/9 32/35/9
f 32/35/10 34/37/10 35/38/10
f 17/39/11 32/40/11 16/41/11
f 16/16/12 32/35/12 35/38/12
f 19/19/13 27/27/13 36/42/13
f 36/42/14 27/27/14 37/43/14
f 18/18/15 36/42/15 37/43/15
f 19/19/16 36/42/16 18/18/16
f 38/44/17 31/34/17 39/45/17
f 31/34/18 25/25/18 39/45/18
f 38/44/19 26/26/19 31/34/19
f 40/46/20 41/47/20 42/48/20
f 43/49/21 41/47/21 40/46/21
f 44/50/22 43/49/22 40/46/22
f 43/49/1 44/50/1 45/51/1
f 44/50/23 40/46/23 42/48/23
f 11/11/24 46/52/24 10/10/24
f 47/53/25 24/24/25 48/54/25
f 24/24/26 49/55/26 48/54/26
f 47/53/27 48/54/27 49/55/27
f 50/56/28 51/57/28 52/58/28
f 53/59/29 54/60/29 50/56/29
f 50/56/30 54/60/30 51/57/30
f 55/61/31 50/56/31 52/58/31
f 53/59/32 50/56/32 55/61/32
f 56/62/33 57/63/33 12/12/33
f 57/63/34 58/64/34 12/12/34
f 56/62/35 58/64/35 57/63/35
f 9/9/36 59/65/36 2/2/36
f 59/65/37 9/9/37 60/66/37
f 46/52/38 61/67/38 10/10/38
f 62/68/39 61/67/39 46/52/39
f 11/11/40 62/68/40 46/52/40
f 63/69/41 64/70/41 7/7/41
f 59/65/42 28/28/42 2/2/42
f 59/65/42 8/8/42 28/28/42
f 60/66/43 8/8/43 59/65/43
f 8/8/1 63/69/1 7/7/1
f 63/69/1 8/8/1 60/66/1
f 6/6/1 65/71/1 5/5/1
f 65/71/1 6/6/1 66/72/1
f 63/69/1 51/57/1 67/73/1
f 51/57/1 63/69/1 52/58/1
f 52/58/1 63/69/1 60/66/1
f 52/58/1 60/66/1 9/9/1
f 52/58/1 9/9/1 61/67/1
f 61/67/1 9/9/1 10/10/1
f 51/57/1 66/72/1 67/73/1
f 66/72/1 51/57/1 54/60/1
f 66/72/1 54/60/1 65/71/1
f 65/71/1 54/60/1 49/55/1
f 65/71/1 49/55/1 23/23/1
f 23/23/1 49/55/1 24/24/1
f 53/59/1 49/55/1 54/60/1
f 49/55/1 53/59/1 47/53/1
f 47/53/1 53/59/1 42/48/1
f 47/74/2 42/75/2 41/76/2
f 47/53/1 41/47/1 43/49/1
f 47/53/1 43/49/1 39/45/1
f 39/45/1 43/49/1 38/44/1
f 61/67/1 55/61/1 52/58/1
f 55/61/1 61/67/1 62/68/1
f 55/61/1 62/68/1 58/64/1
f 55/61/1 58/64/1 56/62/1
f 55/61/1 56/62/1 42/48/1
f 55/61/1 42/48/1 53/59/1
f 42/48/1 56/62/1 44/50/1
f 11/11/1 58/64/1 62/68/1
f 58/64/1 11/11/1 12/12/1
f 47/53/1 25/25/1 24/24/1
f 25/25/1 47/53/1 39/45/1
f 13/13/1 56/62/1 12/12/1
f 56/62/1 13/13/1 29/29/1
f 56/62/1 29/29/1 44/50/1
f 44/50/1 29/29/1 35/38/1
f 35/38/1 29/29/1 16/16/1
f 16/16/1 29/29/1 15/15/1
f 35/38/1 45/51/1 44/50/1
f 45/51/1 35/38/1 34/37/1
f 38/44/1 27/27/1 26/26/1
f 27/27/1 38/44/1 37/43/1
f 37/43/1 38/44/1 43/49/1
f 37/43/1 43/49/1 45/51/1
f 37/43/1 45/51/1 33/36/1
f 33/36/1 45/51/1 34/37/1
f 33/36/1 18/18/1 37/43/1
f 18/18/1 33/36/1 17/17/1
f 66/72/44 64/70/44 67/73/44
f 63/69/45 67/73/45 64/70/45
f 66/72/46 6/6/46 64/70/46
f 64/77/47 6/78/47 7/79/47
f 23/23/48 68/80/48 65/71/48
f 65/71/49 68/80/49 5/5/49
f 68/81/50 20/82/50 22/83/50
f 20/20/51 68/80/51 23/23/51
f 68/81/52 22/83/52 5/84/52
f 3/85/53 69/86/53 70/87/53
f 69/86/53 3/85/53 21/88/53
f 1/89/54 3/90/54 71/91/54
f 71/91/54 3/90/54 70/92/54
f 4/93/2 71/94/2 72/95/2
f 1/96/2 71/94/2 4/93/2
f 69/97/55 4/98/55 72/99/55
f 4/98/55 69/97/55 21/100/55
f 69/101/56 71/102/56 70/103/56
f 71/102/56 69/101/56 72/104/56
